<?xml version="1.0" encoding="UTF-8" standalone="no"?>
<!-- Created with Inkscape (http://www.inkscape.org/) -->
<svg id="svg3266" xmlns:rdf="http://www.w3.org/1999/02/22-rdf-syntax-ns#" xmlns="http://www.w3.org/2000/svg" height="1317" width="1318" version="1.1" xmlns:cc="http://creativecommons.org/ns#" xmlns:dc="http://purl.org/dc/elements/1.1/">
 <metadata id="metadata3272">
  <rdf:RDF>
   <cc:Work rdf:about="">
    <dc:format>image/svg+xml</dc:format>
    <dc:type rdf:resource="http://purl.org/dc/dcmitype/StillImage"/>
    <dc:title/>
   </cc:Work>
  </rdf:RDF>
 </metadata>
 <path id="path3276" fill="#1d1d1d" d="m613.49,1314.8c-9.5796-3.3463-17.424-9.275-23.515-17.772-1.1695-1.6315-4.1436-2.5277-14.472-4.3608-98.52-17.485-192.36-68.897-258.75-141.77-22.591-24.794-44.444-54.71-59.64-81.644l-6.12-10.7v-96.268-96.268l-22.163-0.68563c-33.94-1.07-52.63-4.02-78.02-12.33-60.059-19.65-109.87-64.7-133.21-120.48-27.42-65.54-18.017-139.9,25.043-198.04,9.695-13.089,29.738-33.057,43.504-43.342,33.33-24.9,75.14-40.83,117.34-44.69l3-0.27469,0.23633-85c0.12999-46.75,0.24249-85.983,0.25-87.185,0.0238-3.8053,23.521-37.69,43.907-63.315,20.097-25.262,56.075-62.723,79.607-82.887,46.095-39.497,99.774-72.38,152.31-93.3,140.39-55.908,294.2-43.954,427.19,33.202,41.702,24.193,80.269,54.126,116.52,90.434,32.226,32.274,55.534,60.472,80.572,97.472l8.4051,12.421,0.5,88.509,0.5,88.509,13,1.8564c49.883,7.1235,94.648,29.076,129.05,63.283,32.83,32.648,52.98,72.406,59.554,117.5,1.8678,12.813,1.6223,44.389-0.4393,56.5-7.8519,46.126-28.058,84.511-61.325,116.5-18.218,17.518-33.688,28.229-57.835,40.042-15.222,7.4472-35.492,14.596-50.546,17.828-21.392,4.5922-30.487,5.2674-78.618,5.8367-25.39,0.30037-48.228,0.23666-50.75-0.14157l-4.5859-0.6877v-281.79-281.79l-9.2703-12.42c-40.996-54.926-76.281-89.181-126.23-122.54-27.98-18.69-60.399-35.004-93.149-46.875-82.486-29.9-174.45-27.708-260.25,6.2046-54.003,21.344-98.208,49.534-145.52,92.799-19.047,17.418-48.609,51.04-65.089,74.03l-6.4516,9-0.0201,375.32-0.0201,375.32,3.1562,4.6802c12.013,17.814,33.262,43.369,52.681,63.359,62.018,63.838,140.21,108.85,219.65,126.43l10.986,2.4316,2.5136-2.0281c5.157-4.1609,10.626-7.3806,15.989-9.4128,5.2654-1.9952,7.6751-2.1078,51.41-2.401,29.896-0.2004,48.352,0.075,52.963,0.7904,14.389,2.2326,26.594,11.055,32.833,23.734,3.1288,6.3587,3.3172,7.3468,3.2921,17.262-0.024,9.5383-0.2972,11.076-2.9329,16.518-3.9716,8.1992-12.691,16.73-21.239,20.778l-6.8016,3.2216-52,0.235c-47.335,0.2139-52.45,0.078-57.013-1.5161zm-117.99-451.22c-21.413-4.3895-32.879-18.616-37.042-45.961-1.1391-7.4819-1.4476-22.193-1.4522-69.25l-0.01-59.75h17,17v61.364c0,37.328,0.3975,63.46,1.0149,66.715,2.2386,11.804,7.5199,17.914,15.485,17.914,8.4996,0,13.31-5.9222,15.431-18.999,0.6539-4.0306,1.0564-29.349,1.0611-66.744l0.01-60.25h17,17l-0.01,56.75c-0.01,69.527-0.7419,77.638-8.4837,94.03-5.9186,12.532-16.925,21.286-30.307,24.104-5.9987,1.2632-17.728,1.3013-23.701,0.0768zm234-0.59018c-2.75-0.21634-6.0125-0.62183-7.25-0.90109l-2.25-0.50773v-85.391-85.391l7.25-1.3331c11.37-2.0907,41.522-1.7704,50.25,0.53374,33.713,8.9003,49.192,38.648,47.152,90.619-1.2132,30.907-7.9749,50.312-22.652,65.009-7.585,7.5951-17.47,12.887-29,15.525-7.3732,1.6868-32.123,2.7321-43.5,1.8371zm40.015-29.453c8.3691-4.3728,14.267-14.519,17.712-30.468,1.8017-8.3415,2.1512-13.263,2.1621-30.45,0.011-17.854-0.273-21.648-2.2032-29.392-2.4566-9.8566-5.868-16.88-10.501-21.618-4.6797-4.7865-8.437-6.3221-15.685-6.4103l-6.5-0.0791-0.2578,60.25-0.2578,60.25h5.7726c3.906,0,7.0612-0.6733,9.7578-2.0822zm-428.52-56.83v-85.91l7.25-1.312c4.3691-0.79069,15.197-1.3209,27.25-1.3343,17.837-0.0199,20.846,0.22229,27.823,2.2387,10.801,3.1217,15.184,5.5688,21.676,12.102,9.32,9.37,13,19.92,13,37.28,0,13.139-1.1906,19.224-5.5659,28.446-8.3275,17.552-25.134,27.816-47.684,29.12l-9.75,0.56378v32.355,32.355h-17-17v-85.91zm48.124-7.6332c10.554-3.7214,16.692-15.482,15.602-29.895-1.28-17.01-10.43-25.77-24.97-23.91l-4.75,0.60541v27.371,27.371h4.8743c2.6808,0,6.8434-0.69429,9.25-1.5429zm197.88,6.5175,0-87.025,15.566,0.2754,15.566,0.27539,15.848,40.225c8.7164,22.124,18.879,48.569,22.584,58.766,3.7052,10.198,6.8342,18.421,6.9534,18.275,0.1192-0.14657-0.3755-10.166-1.0994-22.266s-1.339-38.538-1.3669-58.75l-0.051-36.75h14.5,14.5v87.025,87.025l-15.602-0.2754-15.601-0.27539-1.7397-4.5c-0.9569-2.475-7.0325-17.55-13.501-33.5-13.594-33.518-20.362-51.624-24.95-66.746l-3.2605-10.746,0.4623,57.996,0.4623,57.996h-14.635-14.635v-87.025zm259,0.0254,0-87,17,0,17,0,0,87,0,87-17,0-17,0,0-87zm83,15.5,0-71.5-15.5,0-15.5,0,0-15.5,0-15.5,48,0,48,0,0,15.5,0,15.5-15.5,0-15.5,0,0,71.5,0,71.5-17,0-17,0,0-71.5zm-576.76-109.78c-5.068-2.944-5.7089-5.2032-6.0942-21.482l-0.36091-15.25h-2.8932c-2.5479,0-2.8932-0.35796-2.8932-3,0-2.6667,0.33333-3,3-3,2.9286,0,3-0.11767,3-4.941,0-5.4264,0.0653-5.5161,4.75-6.5209l3.25-0.69705v6.0794,6.0795h5.5c5.4444,0,5.5,0.0303,5.5,3s-0.0556,3-5.5,3h-5.5v13.809c0,15.903,0.61563,17.591,6.414,17.591,2.9939,0,3.754,0.42089,4.2373,2.3466,0.32392,1.2906,0.3198,2.6157-0.009,2.9447-1.2792,1.2792-10.218,1.3089-12.401,0.0412zm82.396-0.13133c-9.0812-3.3923-13.192-11.058-12.416-23.153,0.40342-6.2862,0.97981-8.274,3.396-11.712,3.734-5.3129,7.9732-7.7463,14.591-8.3758,10.628-1.011,18.433,6.427,19.034,18.139l0.2569,5-15.37,0.27669-15.37,0.27669,0.6342,3.171c1.9051,9.5254,11.293,14.02,22.545,10.793,3.8893-1.1154,3.5936-1.2257,4.4835,1.672,0.5018,1.6338,0.1297,2.4795-1.467,3.334-3.4897,1.8676-15.921,2.2212-20.32,0.57798zm17.363-27.133c0-2.8462-2.8174-8.2998-4.8496-9.3874-3.4112-1.8256-9.6117-1.2921-12.637,1.0874-2.2852,1.7975-5.5137,7.2431-5.5137,9.3,0,0.29267,5.175,0.53212,11.5,0.53212,9.6627,0,11.5-0.24478,11.5-1.5321zm-78-4.47v-32h4,4v13.589,13.589l3.0451-2.5623c6.8277-5.7451,15.924-5.8464,21.531-0.23974,4.4581,4.4581,5.4122,8.9258,5.4186,25.374l0.006,14.25h-4-4v-14.852c0-13.749-0.1671-15.099-2.25-18.181-4.0556-6.0008-12.089-5.9182-17.217,0.17687-2.4627,2.9267-2.5327,3.4226-2.5327,17.933v14.923h-4-4v-32z"/>
</svg>
